<svg width="720" height="919" viewBox="0 0 720 919" fill="none" xmlns="http://www.w3.org/2000/svg">
<path d="M320.317 594.767L188.35 629.65L451 919L719.5 919L320.317 594.767Z" fill="black"/>
<path d="M720.5 409L408.5 23.5L-0.000485214 918.837L431.5 918.836L720.5 409Z" fill="#323232"/>
<g filter="url(#filter0_d)">
<path d="M537.066 884.113L537.402 884.209C537.514 884.209 537.65 884.129 537.81 883.969C537.97 883.793 538.106 883.705 538.218 883.705C538.346 883.705 538.522 883.777 538.746 883.921C538.97 884.049 539.082 884.169 539.082 884.281C539.082 884.537 538.498 885.377 537.33 886.801C536.162 888.209 534.882 889.721 533.49 891.337C532.098 892.953 530.818 894.585 529.65 896.233C528.482 897.865 527.898 899.001 527.898 899.641C527.898 900.729 527.978 901.561 528.138 902.137L528.21 902.377C528.21 902.489 528.074 902.545 527.802 902.545C527.53 902.545 527.314 902.521 527.154 902.473C527.01 902.441 526.834 902.361 526.626 902.233C526.242 901.977 525.97 901.297 525.81 900.193C525.81 899.665 525.858 899.177 525.954 898.729C526.05 898.265 526.274 897.713 526.626 897.073C526.994 896.433 527.346 895.857 527.682 895.345C528.034 894.833 528.642 894.057 529.506 893.017C530.642 891.657 531.914 890.193 533.322 888.625C534.73 887.041 535.498 886.177 535.626 886.033C535.77 885.873 535.842 885.777 535.842 885.745C535.842 885.713 535.386 886.105 534.474 886.921C533.578 887.721 532.018 889.161 529.794 891.241C527.586 893.321 526.218 894.673 525.69 895.297C523.594 897.697 522.306 899.257 521.826 899.977C521.746 900.185 521.602 900.289 521.394 900.289C521.202 900.289 521.026 900.153 520.866 899.881C520.594 899.417 520.458 898.833 520.458 898.129C520.778 896.961 521.402 895.489 522.33 893.713C523.258 891.921 524.29 890.161 525.426 888.433L526.554 886.969C526.666 886.793 526.722 886.681 526.722 886.633L526.698 886.609C526.682 886.609 526.066 887.265 524.85 888.577C523.634 889.889 522.914 890.673 522.69 890.929L517.554 896.545C515.522 898.769 514.058 900.113 513.162 900.577C511.61 901.089 510.674 901.377 510.354 901.441C510.178 901.441 510.09 901.409 510.09 901.345C510.09 901.281 510.17 901.177 510.33 901.033C512.666 898.649 514.13 897.169 514.722 896.593C514.85 896.513 515.898 895.513 517.866 893.593C519.834 891.657 521.938 889.657 524.178 887.593C526.434 885.529 528.034 884.241 528.978 883.729C529.602 883.537 530.066 883.441 530.37 883.441C530.69 883.441 530.85 883.529 530.85 883.705C530.85 883.817 530.778 883.945 530.634 884.089C528.218 887.545 526.802 889.729 526.386 890.641L524.922 893.401C524.874 893.513 524.85 893.593 524.85 893.641C524.85 893.737 524.866 893.769 524.898 893.737C526.162 892.713 527.818 891.273 529.866 889.417C531.93 887.561 533.506 886.217 534.594 885.385C535.682 884.537 536.506 884.113 537.066 884.113ZM539.682 887.809C539.842 887.809 539.946 887.841 539.994 887.905C540.218 888.177 540.33 888.401 540.33 888.577C540.33 888.737 540.282 888.881 540.186 889.009C540.09 889.121 539.97 889.257 539.826 889.417C539.698 889.561 539.426 889.769 539.01 890.041C538.61 890.297 538.218 890.425 537.834 890.425C537.546 890.377 537.402 890.201 537.402 889.897C537.402 889.417 537.69 888.953 538.266 888.505C538.842 888.041 539.314 887.809 539.682 887.809ZM533.922 897.265C533.794 897.489 533.73 897.689 533.73 897.865C533.73 898.041 533.826 898.129 534.018 898.129C534.13 898.129 534.322 898.081 534.594 897.985C537.586 896.417 540.514 894.569 543.378 892.441C543.522 892.553 543.594 892.689 543.594 892.849C543.594 893.009 543.514 893.161 543.354 893.305C543.194 893.449 542.962 893.657 542.658 893.929C542.37 894.201 541.81 894.689 540.978 895.393C540.146 896.097 539.37 896.737 538.65 897.313C536.762 898.833 535.37 899.729 534.474 900.001C534.186 900.081 533.874 900.121 533.538 900.121C532.306 900.121 531.69 899.465 531.69 898.153C531.69 897.641 531.97 896.913 532.53 895.969C533.09 895.009 533.666 894.169 534.258 893.449C534.85 892.713 535.242 892.305 535.434 892.225C535.722 892.049 536.034 891.961 536.37 891.961C536.706 891.961 537.026 892.025 537.33 892.153C537.426 892.201 537.474 892.265 537.474 892.345C537.474 892.425 537.394 892.545 537.234 892.705C537.09 892.865 536.858 893.113 536.538 893.449C536.234 893.785 535.77 894.369 535.146 895.201C534.538 896.017 534.13 896.705 533.922 897.265ZM548.533 892.273C548.517 892.849 548.157 893.417 547.453 893.977C546.765 894.537 545.925 894.817 544.933 894.817C544.517 894.817 544.309 894.697 544.309 894.457C544.309 894.361 544.381 894.289 544.525 894.241C545.485 893.681 546.093 893.225 546.349 892.873C546.381 892.809 546.397 892.737 546.397 892.657C546.397 892.577 546.357 892.537 546.277 892.537C544.917 892.729 543.621 893.473 542.389 894.769C541.157 896.065 540.541 897.073 540.541 897.793C540.541 898.129 540.669 898.297 540.925 898.297C542.109 898.297 543.357 897.953 544.669 897.265C545.981 896.577 547.933 895.313 550.525 893.473C550.701 893.345 550.965 893.153 551.317 892.897C551.685 892.641 551.901 892.489 551.965 892.441C552.109 892.553 552.181 892.689 552.181 892.849C552.181 893.009 552.109 893.153 551.965 893.281C551.165 894.081 550.125 894.977 548.845 895.969C547.581 896.961 546.125 897.905 544.477 898.801C542.829 899.681 541.485 900.121 540.445 900.121C539.213 900.121 538.597 899.465 538.597 898.153C538.597 897.241 538.901 896.353 539.509 895.489C540.117 894.609 540.861 893.873 541.741 893.281C542.621 892.689 543.541 892.217 544.501 891.865C545.461 891.497 546.229 891.313 546.805 891.313C547.397 891.313 547.821 891.393 548.077 891.553C548.333 891.713 548.469 891.873 548.485 892.033L548.533 892.273ZM553.45 897.577C553.45 897.657 553.482 897.697 553.546 897.697C553.61 897.697 553.738 897.649 553.93 897.553C556.314 896.273 558.938 894.569 561.802 892.441C561.946 892.553 562.018 892.689 562.018 892.849C562.018 893.009 561.938 893.161 561.778 893.305C561.618 893.449 561.386 893.657 561.082 893.929C560.794 894.201 560.234 894.689 559.402 895.393C558.57 896.097 557.794 896.737 557.074 897.313C555.186 898.833 553.794 899.729 552.898 900.001C552.61 900.081 552.298 900.121 551.962 900.121C551.418 900.121 551.146 899.697 551.146 898.849C551.146 898.561 551.322 898.089 551.674 897.433C552.026 896.761 552.202 896.273 552.202 895.969C552.202 895.937 552.178 895.921 552.13 895.921C552.082 895.921 551.962 895.993 551.77 896.137C549.546 897.865 548.194 899.065 547.714 899.737C547.618 899.881 547.49 899.953 547.33 899.953C546.978 899.953 546.754 899.785 546.658 899.449C546.658 898.969 547.33 897.753 548.674 895.801C550.034 893.849 551.626 891.801 553.45 889.657C555.274 887.497 556.762 885.977 557.914 885.097C558.25 884.777 559.034 884.617 560.266 884.617C560.458 884.665 560.554 884.745 560.554 884.857C560.554 884.969 560.498 885.081 560.386 885.193C555.778 889.641 552.85 892.721 551.602 894.433C551.538 894.497 551.45 894.617 551.338 894.793C551.242 894.953 551.194 895.057 551.194 895.105L551.218 895.129C551.282 895.129 551.786 894.777 552.73 894.073C553.674 893.353 554.378 892.841 554.842 892.537C554.986 892.393 555.29 892.321 555.754 892.321C556.154 892.369 556.354 892.497 556.354 892.705C556.354 892.769 556.338 892.825 556.306 892.873C555.122 894.553 554.41 895.625 554.17 896.089C553.69 896.841 553.45 897.337 553.45 897.577ZM561.592 898.681L561.784 897.145C561.784 897.097 561.768 897.073 561.736 897.073C561.72 897.073 561.68 897.105 561.616 897.169C561.408 897.393 561.144 897.673 560.824 898.009C560.504 898.329 559.952 898.769 559.168 899.329C558.4 899.873 557.776 900.145 557.296 900.145C557.216 900.129 557.12 900.097 557.008 900.049C556.88 900.017 556.72 899.889 556.528 899.665C556.336 899.441 556.24 899.121 556.24 898.705C556.24 898.289 556.56 897.657 557.2 896.809C557.824 895.945 558.576 895.105 559.456 894.289C560.336 893.457 561.312 892.737 562.384 892.129C563.472 891.521 564.416 891.217 565.216 891.217C565.52 891.233 565.76 891.449 565.936 891.865C566.096 891.705 566.24 891.625 566.368 891.625C566.496 891.625 566.648 891.721 566.824 891.913C566.92 891.929 567.016 891.985 567.112 892.081C567.208 892.161 567.256 892.281 567.256 892.441C567.256 892.601 567.144 892.777 566.92 892.969C566.584 893.385 566.192 893.857 565.744 894.385C565.296 894.913 564.976 895.297 564.784 895.537C564.592 895.761 564.392 896.017 564.184 896.305C563.832 896.801 563.64 897.201 563.608 897.505C565.24 896.721 567.808 895.033 571.312 892.441C571.456 892.553 571.528 892.689 571.528 892.849C571.528 893.009 571.464 893.145 571.336 893.257C571.208 893.369 571.048 893.505 570.856 893.665C570.68 893.825 570.32 894.137 569.776 894.601C569.232 895.065 568.704 895.513 568.192 895.945C567.696 896.361 567.12 896.833 566.464 897.361C565.824 897.873 565.248 898.313 564.736 898.681C563.504 899.561 562.736 900.001 562.432 900.001C562.128 900.001 561.912 899.905 561.784 899.713C561.656 899.521 561.592 899.177 561.592 898.681ZM559.144 897.673C559.336 897.673 559.92 897.281 560.896 896.497C561.888 895.713 562.824 894.929 563.704 894.145L565.048 892.969C565.112 892.905 565.144 892.865 565.144 892.849C565.144 892.817 565.12 892.801 565.072 892.801C564.464 892.801 563.672 893.153 562.696 893.857C561.72 894.545 560.872 895.281 560.152 896.065C559.448 896.833 559.096 897.353 559.096 897.625C559.096 897.657 559.112 897.673 559.144 897.673ZM574.112 892.441C573.696 892.441 572.992 892.873 572 893.737C571.008 894.585 570.512 895.105 570.512 895.297C570.512 895.329 570.536 895.345 570.584 895.345C570.936 895.345 571.632 894.953 572.672 894.169C573.728 893.385 574.256 892.849 574.256 892.561C574.256 892.481 574.208 892.441 574.112 892.441ZM569 900.121C567.768 900.121 567.152 899.369 567.152 897.865C567.152 896.921 567.56 895.921 568.376 894.865C569.208 893.793 570.184 892.921 571.304 892.249C572.424 891.561 573.416 891.217 574.28 891.217C574.664 891.217 575.016 891.369 575.336 891.673C575.672 891.977 575.84 892.273 575.84 892.561C575.84 893.089 575.464 893.689 574.712 894.361C573.96 895.017 573.168 895.553 572.336 895.969C571.52 896.369 570.976 896.569 570.704 896.569C570.448 896.569 570.256 896.449 570.128 896.209C570.064 896.161 569.976 896.137 569.864 896.137C569.752 896.137 569.568 896.353 569.312 896.785C569.056 897.201 568.928 897.545 568.928 897.817C568.928 898.073 569.024 898.233 569.216 898.297C570.432 898.297 571.752 897.945 573.176 897.241C574.6 896.521 576.568 895.265 579.08 893.473C579.256 893.345 579.52 893.153 579.872 892.897C580.24 892.641 580.456 892.489 580.52 892.441C580.664 892.553 580.736 892.689 580.736 892.849C580.736 893.009 580.664 893.153 580.52 893.281C579.72 894.081 578.68 894.977 577.4 895.969C576.136 896.961 574.68 897.905 573.032 898.801C571.384 899.681 570.04 900.121 569 900.121ZM578.63 898.105C579.158 898.105 580.198 897.633 581.75 896.689C583.318 895.745 584.742 894.801 586.022 893.857L587.966 892.441C588.11 892.553 588.182 892.689 588.182 892.849C588.182 893.009 588.102 893.161 587.942 893.305C587.782 893.449 587.55 893.657 587.246 893.929C586.958 894.201 586.398 894.689 585.566 895.393C584.734 896.097 583.958 896.737 583.238 897.313C581.35 898.833 579.958 899.729 579.062 900.001C578.774 900.081 578.478 900.121 578.174 900.121C577.87 900.121 577.63 900.097 577.454 900.049C577.278 900.001 577.086 899.897 576.878 899.737C576.462 899.385 576.254 898.601 576.254 897.385C576.254 897.049 576.398 896.537 576.686 895.849C576.974 895.161 577.446 894.329 578.102 893.353C578.774 892.377 579.55 891.401 580.43 890.425C581.326 889.449 582.454 888.473 583.814 887.497C585.19 886.521 586.654 885.729 588.206 885.121C588.446 885.041 588.662 885.001 588.854 885.001C589.046 885.001 589.222 885.089 589.382 885.265C589.542 885.425 589.654 885.593 589.718 885.769L589.838 886.009C589.838 886.377 589.27 887.185 588.134 888.433C586.966 889.729 585.614 890.969 584.078 892.153C582.558 893.321 581.142 894.321 579.83 895.153C578.758 895.857 578.222 896.593 578.222 897.361C578.222 897.857 578.358 898.105 578.63 898.105ZM580.79 893.137C581.19 893.137 582.398 892.153 584.414 890.185C586.446 888.217 587.462 887.121 587.462 886.897L587.438 886.849L587.03 887.041C586.198 887.585 585.086 888.513 583.694 889.825C582.318 891.137 581.366 892.161 580.838 892.897C580.774 892.977 580.742 893.041 580.742 893.089C580.742 893.121 580.758 893.137 580.79 893.137ZM598.265 891.073L600.689 890.809H600.737C601.153 890.809 601.497 890.673 601.769 890.401C605.817 886.241 608.489 883.777 609.785 883.009C609.913 882.913 610.033 882.865 610.145 882.865C610.257 882.865 610.345 882.897 610.409 882.961C610.761 883.217 610.937 883.385 610.937 883.465C610.937 883.529 610.913 883.585 610.865 883.633C606.689 887.729 604.601 889.937 604.601 890.257C604.601 890.337 604.665 890.377 604.793 890.377C605.753 890.393 606.281 890.449 606.377 890.545C606.473 890.641 606.617 890.705 606.809 890.737C607.065 890.737 607.457 890.833 607.985 891.025C608.513 891.201 608.777 891.441 608.777 891.745C608.777 891.825 608.737 891.881 608.657 891.913C608.593 891.929 608.281 891.977 607.721 892.057C607.161 892.137 606.441 892.233 605.561 892.345C604.681 892.457 603.977 892.545 603.449 892.609C602.937 892.673 602.577 892.729 602.369 892.777C602.161 892.809 602.001 892.921 601.889 893.113C599.553 896.153 597.937 898.385 597.041 899.809C597.009 899.985 596.913 900.073 596.753 900.073C596.593 900.073 596.425 899.921 596.249 899.617C596.089 899.313 596.009 898.977 596.009 898.609C596.009 897.681 596.961 896.009 598.865 893.593C598.977 893.497 599.033 893.417 599.033 893.353C599.033 893.321 599.001 893.305 598.937 893.305H598.817L595.697 893.833C595.473 893.833 595.289 893.929 595.145 894.121C593.017 897.033 591.801 898.761 591.497 899.305C591.449 899.497 591.337 899.593 591.161 899.593C591.001 899.593 590.801 899.473 590.561 899.233C590.321 898.977 590.201 898.689 590.201 898.369C590.201 898.049 590.409 897.465 590.825 896.617C591.257 895.753 591.705 895.041 592.169 894.481C592.249 894.369 592.289 894.281 592.289 894.217C592.289 894.153 592.233 894.121 592.121 894.121L590.993 894.073C590.721 894.057 590.329 893.817 589.817 893.353C589.321 892.873 589.073 892.449 589.073 892.081C589.073 891.937 589.153 891.865 589.313 891.865C590.465 891.993 591.241 892.057 591.641 892.057C592.057 892.057 593.001 891.929 594.473 891.673C594.617 891.625 594.809 891.465 595.049 891.193C599.881 886.169 602.593 883.657 603.185 883.657C603.281 883.657 603.401 883.737 603.545 883.897C603.705 884.057 603.785 884.185 603.785 884.281C603.785 884.361 603.753 884.433 603.689 884.497C600.409 888.081 598.641 890.025 598.385 890.329C598.129 890.617 598.001 890.817 598.001 890.929C598.001 891.025 598.089 891.073 598.265 891.073ZM608.163 898.681L608.355 897.145C608.355 897.097 608.339 897.073 608.307 897.073C608.291 897.073 608.251 897.105 608.187 897.169C607.979 897.393 607.715 897.673 607.395 898.009C607.075 898.329 606.523 898.769 605.739 899.329C604.971 899.873 604.347 900.145 603.867 900.145C603.787 900.129 603.691 900.097 603.579 900.049C603.451 900.017 603.291 899.889 603.099 899.665C602.907 899.441 602.811 899.121 602.811 898.705C602.811 898.289 603.131 897.657 603.771 896.809C604.395 895.945 605.147 895.105 606.027 894.289C606.907 893.457 607.883 892.737 608.955 892.129C610.043 891.521 610.987 891.217 611.787 891.217C612.091 891.233 612.331 891.449 612.507 891.865C612.667 891.705 612.811 891.625 612.939 891.625C613.067 891.625 613.219 891.721 613.395 891.913C613.491 891.929 613.587 891.985 613.683 892.081C613.779 892.161 613.827 892.281 613.827 892.441C613.827 892.601 613.715 892.777 613.491 892.969C613.155 893.385 612.763 893.857 612.315 894.385C611.867 894.913 611.547 895.297 611.355 895.537C611.163 895.761 610.963 896.017 610.755 896.305C610.403 896.801 610.211 897.201 610.179 897.505C611.811 896.721 614.379 895.033 617.883 892.441C618.027 892.553 618.099 892.689 618.099 892.849C618.099 893.009 618.035 893.145 617.907 893.257C617.779 893.369 617.619 893.505 617.427 893.665C617.251 893.825 616.891 894.137 616.347 894.601C615.803 895.065 615.275 895.513 614.763 895.945C614.267 896.361 613.691 896.833 613.035 897.361C612.395 897.873 611.819 898.313 611.307 898.681C610.075 899.561 609.307 900.001 609.003 900.001C608.699 900.001 608.483 899.905 608.355 899.713C608.227 899.521 608.163 899.177 608.163 898.681ZM605.715 897.673C605.907 897.673 606.491 897.281 607.467 896.497C608.459 895.713 609.395 894.929 610.275 894.145L611.619 892.969C611.683 892.905 611.715 892.865 611.715 892.849C611.715 892.817 611.691 892.801 611.643 892.801C611.035 892.801 610.243 893.153 609.267 893.857C608.291 894.545 607.443 895.281 606.723 896.065C606.019 896.833 605.667 897.353 605.667 897.625C605.667 897.657 605.683 897.673 605.715 897.673ZM616.458 898.105C616.986 898.105 618.026 897.633 619.578 896.689C621.146 895.745 622.57 894.801 623.85 893.857L625.794 892.441C625.938 892.553 626.01 892.689 626.01 892.849C626.01 893.009 625.93 893.161 625.77 893.305C625.61 893.449 625.378 893.657 625.074 893.929C624.786 894.201 624.226 894.689 623.394 895.393C622.562 896.097 621.786 896.737 621.066 897.313C619.178 898.833 617.786 899.729 616.89 900.001C616.602 900.081 616.306 900.121 616.002 900.121C615.698 900.121 615.458 900.097 615.282 900.049C615.106 900.001 614.914 899.897 614.706 899.737C614.29 899.385 614.082 898.601 614.082 897.385C614.082 897.049 614.226 896.537 614.514 895.849C614.802 895.161 615.274 894.329 615.93 893.353C616.602 892.377 617.378 891.401 618.258 890.425C619.154 889.449 620.282 888.473 621.642 887.497C623.018 886.521 624.482 885.729 626.034 885.121C626.274 885.041 626.49 885.001 626.682 885.001C626.874 885.001 627.05 885.089 627.21 885.265C627.37 885.425 627.482 885.593 627.546 885.769L627.666 886.009C627.666 886.377 627.098 887.185 625.962 888.433C624.794 889.729 623.442 890.969 621.906 892.153C620.386 893.321 618.97 894.321 617.658 895.153C616.586 895.857 616.05 896.593 616.05 897.361C616.05 897.857 616.186 898.105 616.458 898.105ZM618.618 893.137C619.018 893.137 620.226 892.153 622.242 890.185C624.274 888.217 625.29 887.121 625.29 886.897L625.266 886.849L624.858 887.041C624.026 887.585 622.914 888.513 621.522 889.825C620.146 891.137 619.194 892.161 618.666 892.897C618.602 892.977 618.57 893.041 618.57 893.089C618.57 893.121 618.586 893.137 618.618 893.137ZM624.357 898.105C624.885 898.105 625.925 897.633 627.477 896.689C629.045 895.745 630.469 894.801 631.749 893.857L633.693 892.441C633.837 892.553 633.909 892.689 633.909 892.849C633.909 893.009 633.829 893.161 633.669 893.305C633.509 893.449 633.277 893.657 632.973 893.929C632.685 894.201 632.125 894.689 631.293 895.393C630.461 896.097 629.685 896.737 628.965 897.313C627.077 898.833 625.685 899.729 624.789 900.001C624.501 900.081 624.205 900.121 623.901 900.121C623.597 900.121 623.357 900.097 623.181 900.049C623.005 900.001 622.813 899.897 622.605 899.737C622.189 899.385 621.981 898.601 621.981 897.385C621.981 897.049 622.125 896.537 622.413 895.849C622.701 895.161 623.173 894.329 623.829 893.353C624.501 892.377 625.277 891.401 626.157 890.425C627.053 889.449 628.181 888.473 629.541 887.497C630.917 886.521 632.381 885.729 633.933 885.121C634.173 885.041 634.389 885.001 634.581 885.001C634.773 885.001 634.949 885.089 635.109 885.265C635.269 885.425 635.381 885.593 635.445 885.769L635.565 886.009C635.565 886.377 634.997 887.185 633.861 888.433C632.693 889.729 631.341 890.969 629.805 892.153C628.285 893.321 626.869 894.321 625.557 895.153C624.485 895.857 623.949 896.593 623.949 897.361C623.949 897.857 624.085 898.105 624.357 898.105ZM626.517 893.137C626.917 893.137 628.125 892.153 630.141 890.185C632.173 888.217 633.189 887.121 633.189 886.897L633.165 886.849L632.757 887.041C631.925 887.585 630.813 888.513 629.421 889.825C628.045 891.137 627.093 892.161 626.565 892.897C626.501 892.977 626.469 893.041 626.469 893.089C626.469 893.121 626.485 893.137 626.517 893.137Z" fill="white"/>
</g>
<defs>
<filter id="filter0_d" x="506.09" y="882.865" width="133.475" height="27.68" filterUnits="userSpaceOnUse" color-interpolation-filters="sRGB">
<feFlood flood-opacity="0" result="BackgroundImageFix"/>
<feColorMatrix in="SourceAlpha" type="matrix" values="0 0 0 0 0 0 0 0 0 0 0 0 0 0 0 0 0 0 127 0"/>
<feOffset dy="4"/>
<feGaussianBlur stdDeviation="2"/>
<feColorMatrix type="matrix" values="0 0 0 0 0 0 0 0 0 0 0 0 0 0 0 0 0 0 0.25 0"/>
<feBlend mode="normal" in2="BackgroundImageFix" result="effect1_dropShadow"/>
<feBlend mode="normal" in="SourceGraphic" in2="effect1_dropShadow" result="shape"/>
</filter>
</defs>
</svg>
