<svg width="64" height="48" viewBox="0 0 64 48" fill="none" xmlns="http://www.w3.org/2000/svg">
<path d="M12.1547 11.875L24.6907 0.70775C25.2213 0.2375 25.9173 0 26.6133 0C28.248 0 29.3333 1.19938 29.3333 2.44388C29.3333 3.03763 29.088 3.64088 28.536 4.1325L19.8427 11.875H12.1547V11.875ZM44.1573 11.875H51.8453L39.3093 0.70775C38.7787 0.2375 38.0827 0 37.3867 0C35.752 0 34.6667 1.19938 34.6667 2.44388C34.6667 3.03763 34.912 3.64088 35.464 4.1325L44.1573 11.875ZM54.032 21.375L53.9893 21.4724L44.3947 42.75H19.6053L10.0133 21.4676L9.97067 21.375H54.032V21.375ZM64 16.625H0V21.375H1.71467C3.13867 21.375 4.43733 22.097 5.064 23.237L16 47.5H48L58.9387 23.2418C59.56 22.0994 60.864 21.375 62.288 21.375H64V16.625Z" fill="black"/>
</svg>
